<?xml version="1.0" encoding="utf-8"?>
<!-- Generator: Adobe Illustrator 19.2.1, SVG Export Plug-In . SVG Version: 6.00 Build 0)  -->
<svg version="1.1" id="Layer_1" xmlns="http://www.w3.org/2000/svg" xmlns:xlink="http://www.w3.org/1999/xlink" x="0px" y="0px"
	 width="200px" height="167px" viewBox="0 0 200 167" style="enable-background:new 0 0 200 167;" xml:space="preserve">
<style type="text/css">
	.st0{fill:#FFFFFF;}
	.st1{fill:#7FCACC;}
</style>
<path class="st0" d="M8.2,9.1v87.8H194V9.1H8.2z M106.4,9.5l3,5.6l-15.2,7.1l-2-3.6L106.4,9.5z M46,60.6v22h-7V60.8L19.8,26.1h7.5
	l15.5,28.6l14.2-28.6h7L46,60.6z M118.9,61.5c0,13-4.9,22-20.8,22c-15.5,0-20.5-7.6-20.5-21.3V26.1h6.9v35.3
	c0,12.2,3.9,16.2,13.8,16.2c10.3,0,13.6-4.9,13.6-16.8V26.1h6.9V61.5z M175.7,82.6h-7.2l-28-46.1v46.1h-6.7V26.1h7.7l27.5,45.3V26.1
	h6.6V82.6z"/>
<g>
	<path class="st1" d="M10.4,118.8H24c10.5,0,14.5,5.4,14.5,13.1c0,8.2-5.2,13.6-14.7,13.6h-5.5V158h-7.8V118.8z M30.3,132.2
		c0-4.1-1.4-6.9-6.9-6.9h-5.1v13.8h5.3C27.8,139.1,30.3,137.2,30.3,132.2z"/>
	<path class="st1" d="M41.6,158l13.7-39.2h8.6L77.8,158h-8.3l-3-9H52.4l-2.8,9H41.6z M62.7,137.7l-3.4-11.3l-3.4,11.5l-1.6,4.9h10.1
		L62.7,137.7z"/>
	<path class="st1" d="M92.7,158h-7.4v-39.2h8.4l11.4,16.5l7.2,11l-0.1-10.7v-16.8h7.3V158h-7.9l-11.5-16.8l-7.5-11.4l0.1,11.6V158z"
		/>
	<path class="st1" d="M157.1,118.8v6.4h-17.6v9.5h15.8v6.4h-15.8v10.2H157v6.6h-25.4v-39.2H157.1z"/>
	<path class="st1" d="M175.4,118.8v32.6h16.1v6.6h-23.9v-39.2H175.4z"/>
</g>
</svg>
