<?xml version="1.0" encoding="utf-8"?>
<!-- Generator: Adobe Illustrator 21.0.2, SVG Export Plug-In . SVG Version: 6.00 Build 0)  -->
<svg version="1.1" id="Layer_1" xmlns="http://www.w3.org/2000/svg" xmlns:xlink="http://www.w3.org/1999/xlink" x="0px" y="0px"
	 viewBox="0 0 200 241.9" style="enable-background:new 0 0 200 241.9;" xml:space="preserve">
<style type="text/css">
	.st0{fill:#FFFFFF;}
</style>
<g>
	<path class="st0" d="M10.7,153.8v81.7h172.8v-81.7H10.7z M102,154.1l2.7,5.3L90.6,166l-1.9-3.3L102,154.1z M45.9,201.7v20.4h-6.5
		v-20.3l-17.9-32.2h7l14.4,26.6L56,169.6h6.5L45.9,201.7z M113.7,202.5c0,12.1-4.6,20.4-19.3,20.4c-14.5,0-19.1-7.1-19.1-19.8v-33.5
		h6.5v32.8c0,11.4,3.6,15,12.8,15c9.6,0,12.7-4.5,12.7-15.6v-32.2h6.4V202.5z M166.5,222.2h-6.7l-26-42.9v42.9h-6.2v-52.5h7.2
		l25.6,42.1v-42.1h6.1V222.2z"/>
	<g>
		<path class="st0" d="M188.7,51.6c0-23.7-20-43-44.6-43c-2.3,0-4.6,0.2-6.8,0.5c-19.1,2.7-31.9,16.5-39.1,27
			c-7.2-10.5-20-24.3-39.1-27c-2.3-0.3-4.6-0.5-6.9-0.5c-24.6,0-44.6,19.3-44.6,43c0,23.7,20,43,44.6,43c2.3,0,4.6-0.2,6.9-0.5
			C78.2,91.4,91,77.7,98.2,67.1c7.2,10.6,20,24.3,39.1,27.1c2.3,0.3,4.6,0.5,6.9,0.5C168.7,94.6,188.7,75.3,188.7,51.6z M56.9,79
			c-1.6,0.2-3.2,0.4-4.7,0.4c-16.2,0-29.4-12.5-29.4-27.8c0-15.3,13.2-27.8,29.4-27.8c1.6,0,3.1,0.1,4.7,0.3
			c18,2.6,29,20.3,32.8,27.4C86,58.7,74.9,76.5,56.9,79z M106.6,51.6c3.7-7.1,14.8-24.9,32.8-27.4c1.6-0.2,3.2-0.3,4.7-0.3
			c16.2,0,29.4,12.5,29.4,27.8c0,15.3-13.2,27.8-29.3,27.8c-1.6,0-3.2-0.1-4.7-0.4C121.4,76.5,110.4,58.7,106.6,51.6z"/>
		<rect x="39.9" y="47.4" class="st0" width="26.8" height="8.6"/>
		<polygon class="st0" points="147.1,56 156.1,56 156.1,47.4 147.1,47.4 147.1,38.3 138.4,38.3 138.4,47.4 129.3,47.4 129.3,56 
			138.4,56 138.4,65.1 147.1,65.1 		"/>
		<path class="st0" d="M20.3,107.4l-7.8,24.9h6.3l1.3-5.1h7.1l1.4,5.1h6.6l-7.9-24.9H20.3z M21.2,122.5l2.3-9.1l2.5,9.1H21.2z"/>
		<path class="st0" d="M58.6,115.8c0-4.8-2.6-8.3-9.5-8.3h-10v24.9h6.2v-7.9h3.1l3.8,7.9h7.3l-4.8-9.1
			C57.3,121.8,58.6,119.2,58.6,115.8z M48.5,119.5h-3.2v-7h3.1c2.9,0,3.7,1.1,3.7,3.3C52.1,118.6,50.7,119.5,48.5,119.5z"/>
		<path class="st0" d="M71.8,107.4h-8.2v24.9h8.2c10.6,0,12.4-6.8,12.4-12.7C84.2,111.8,81.1,107.4,71.8,107.4z M72.1,127.2h-2.3
			v-14.8h1.8c5.5,0,6,2.6,6,7.5C77.6,124.2,77.2,127.2,72.1,127.2z"/>
		<path class="st0" d="M102.5,122.6c0,3.8-1.1,5.1-3.9,5.1c-2.3,0-3.8-1-3.8-5.1v-15.2h-6.2v16.3c0,7.5,5.4,9,9.7,9
			c4.4,0,10-1.6,10-9v-16.4h-5.9V122.6z"/>
		<polygon class="st0" points="113.9,112.5 120.3,112.5 120.3,127.2 113.9,127.2 113.9,132.3 133,132.3 133,127.2 126.5,127.2 
			126.5,112.5 133,112.5 133,107.4 113.9,107.4 		"/>
		<polygon class="st0" points="152.9,122.4 144.8,107.4 138.1,107.4 138.1,132.3 143.9,132.3 143.9,116.4 152.4,132.3 158.6,132.3 
			158.6,107.4 152.9,107.4 		"/>
		<path class="st0" d="M173.2,107.1c-7.6,0-10.5,5.5-10.5,13c0,8.3,3.3,12.6,10.5,12.6c8,0,10.7-5.7,10.7-12.9
			C183.9,110.4,180.3,107.1,173.2,107.1z M173.2,127.7c-3.6,0-3.9-2.5-3.9-7.6c0-6.1,0.6-8,3.9-8c3.6,0,4.1,1.7,4.1,7.8
			C177.3,125.6,176.8,127.7,173.2,127.7z"/>
		<g>
			<path class="st0" d="M191.9,10.3c-0.3-0.8-0.8-1.5-1.3-2c-0.5-0.6-1.2-1-2-1.3c-0.8-0.3-1.6-0.5-2.4-0.5c-0.9,0-1.7,0.2-2.4,0.5
				c-0.8,0.3-1.4,0.8-2,1.3c-0.6,0.6-1,1.2-1.3,2c-0.3,0.8-0.5,1.6-0.5,2.5c0,0.9,0.2,1.7,0.5,2.5c0.3,0.8,0.8,1.5,1.3,2
				c0.6,0.6,1.2,1,2,1.3c0.8,0.3,1.6,0.5,2.4,0.5c0.9,0,1.7-0.2,2.4-0.5c0.7-0.3,1.4-0.8,2-1.3c0.6-0.6,1-1.2,1.3-2
				c0.3-0.8,0.5-1.6,0.5-2.5C192.4,11.9,192.2,11,191.9,10.3z M190.5,14.7c-0.2,0.6-0.6,1.1-1,1.5c-0.4,0.4-0.9,0.8-1.5,1.1
				c-0.6,0.3-1.2,0.4-1.8,0.4c-0.7,0-1.3-0.1-1.9-0.4c-0.6-0.3-1.1-0.6-1.5-1.1c-0.4-0.4-0.8-1-1-1.5c-0.2-0.6-0.4-1.2-0.4-1.9
				c0-0.7,0.1-1.3,0.4-1.9c0.2-0.6,0.6-1.1,1-1.6c0.4-0.4,0.9-0.8,1.5-1c0.6-0.2,1.2-0.4,1.9-0.4c0.7,0,1.3,0.1,1.8,0.4
				c0.6,0.2,1.1,0.6,1.5,1c0.4,0.4,0.8,1,1,1.6c0.3,0.6,0.4,1.3,0.4,1.9C190.9,13.5,190.8,14.1,190.5,14.7z"/>
			<path class="st0" d="M187.5,13.4c0.4-0.2,0.6-0.4,0.8-0.7c0.2-0.3,0.3-0.7,0.3-1c0-0.6-0.2-1.1-0.6-1.5c-0.4-0.4-1.1-0.6-2.1-0.6
				c-0.4,0-0.7,0-1,0c-0.3,0-0.6,0-0.9,0.1v6.2h1.6v-2.1h0.6l1.1,2.1h1.8L187.5,13.4z M186,12.6c-0.2,0-0.4,0-0.5,0v-1.7
				c0.1,0,0.3-0.1,0.5-0.1c0.7,0,1,0.3,1,0.9C187,12.3,186.7,12.6,186,12.6z"/>
		</g>
	</g>
</g>
</svg>
