<?xml version="1.0" encoding="utf-8"?>
<!-- Generator: Adobe Illustrator 17.1.0, SVG Export Plug-In . SVG Version: 6.00 Build 0)  -->
<!DOCTYPE svg PUBLIC "-//W3C//DTD SVG 1.1//EN" "http://www.w3.org/Graphics/SVG/1.1/DTD/svg11.dtd">
<svg version="1.1" id="Layer_1" xmlns="http://www.w3.org/2000/svg" xmlns:xlink="http://www.w3.org/1999/xlink" x="0px" y="0px"
	 width="200px" height="415px" viewBox="0 0 200 415" enable-background="new 0 0 200 415" xml:space="preserve">
<line fill="#108A9C" stroke="#FFFFFF" stroke-miterlimit="10" x1="3.755" y1="163.05" x2="188.34" y2="163.05"/>
<path fill="#FFFFFF" d="M6.502,326.782v85.711h181.356v-85.711H6.502z M102.334,327.15l2.883,5.513l-14.842,6.957l-1.954-3.478
	L102.334,327.15z M43.392,377.108v21.461H36.52v-21.292l-18.747-33.842h7.295l15.099,27.906l13.825-27.906h6.788L43.392,377.108z
	 M114.546,377.957c0,12.723-4.833,21.461-20.27,21.461c-15.183,0-20.017-7.463-20.017-20.781v-35.201h6.784v34.437
	c0,11.959,3.82,15.778,13.487,15.778c10.093,0,13.318-4.753,13.318-16.374v-33.842h6.699V377.957z M170.01,398.569h-7.041
	l-27.311-45.04v45.04h-6.531v-55.133h7.548l26.889,44.192v-44.192h6.446V398.569z"/>
<g>
	<g>
		<path fill="#FFFFFF" d="M26.797,266.197v11.09c-3.123,1.685-6.041,2.551-9.164,2.551c-8.259,0-12.001-5.056-12.001-13.852
			c0-9.327,5.671-13.641,13.361-13.641c2.788,0,4.848,0.455,7.759,1.806l-2.255,5.917c-2.218-1.763-3.656-2.34-5.794-2.34
			c-3.865,0-6.041,2.174-6.041,8.179c0,6.33,2.342,8.585,6.33,8.585c0.447,0,0.859,0,1.315-0.081v-8.215H26.797z"/>
		<path fill="#FFFFFF" d="M51.023,272.525l1.647,5.009c-2.629,1.438-5.014,2.304-9.002,2.304c-5.296,0-10.644-2.84-10.644-10.521
			c0-6.371,4.724-10.274,9.942-10.274c5.592,0,9.785,2.753,9.785,10.723c0,0.455,0,0.911-0.045,1.402H39.765
			c0.702,2.999,3.165,3.614,5.462,3.614C46.997,274.782,49.339,273.877,51.023,272.525z M46.173,267.179
			c0.168-2.674-1.357-3.614-2.997-3.614c-2.219,0-3.244,0.94-3.533,3.614H46.173z"/>
		<path fill="#FFFFFF" d="M66.456,279.427h-6.532v-19.769h5.962l0.121,2.918c2.01-2.586,4.603-3.533,7.147-3.533
			c3.533,0,6.618,1.972,6.618,7.03v13.354H73.24v-11.259c0-2.716-1.234-3.208-2.671-3.208c-1.438,0-3.087,0.904-4.112,2.095V279.427
			z"/>
		<path fill="#FFFFFF" d="M99.932,259.658h6.532v19.769h-5.752l-0.332-3.123c-2.01,2.586-4.473,3.533-7.023,3.533
			c-3.533,0-6.62-1.481-6.62-7.03v-13.15h6.541v11.467c0,2.795,1.061,3.286,2.297,3.286c1.438,0,3.208-1.236,4.356-2.586V259.658z"
			/>
		<path fill="#FFFFFF" d="M113.92,274.333h6.041v-9.574h-6.041v-5.101h12.573v14.675h6.25v5.094H113.92V274.333z M123.293,249.593
			c2.008,0,3.656,1.64,3.656,3.656c0,2.017-1.649,3.618-3.656,3.618c-2.017,0-3.621-1.602-3.621-3.618
			C119.672,251.232,121.276,249.593,123.293,249.593z"/>
		<path fill="#FFFFFF" d="M146.653,279.427h-6.532v-19.769h5.96l0.123,2.918c2.008-2.586,4.603-3.533,7.147-3.533
			c3.533,0,6.618,1.972,6.618,7.03v13.354h-6.532v-11.259c0-2.716-1.236-3.208-2.672-3.208c-1.44,0-3.087,0.904-4.112,2.095V279.427
			z"/>
		<path fill="#FFFFFF" d="M176.84,259.043c6.945,0,10.723,4.278,10.723,10.355c0,5.794-3.944,10.44-10.678,10.44
			c-6.698,0-10.855-3.944-10.855-10.44C166.03,263.601,170.31,259.043,176.84,259.043z M176.674,274.782
			c3.289,0,4.031-1.685,4.031-5.422c0-2.882-0.742-5.258-4.031-5.258c-2.831,0-3.777,1.972-3.777,5.258
			C172.896,273.018,174.132,274.782,176.674,274.782z"/>
	</g>
	<g>
		<path fill="#FFFFFF" d="M6.406,197.142v41.569h41.56v-41.569H6.406z M39.937,222.042h-8.618v8.65h-8.223v-8.65h-8.67v-8.223h8.67
			v-8.663h8.223v8.663h8.618V222.042z"/>
		<path fill="#FFFFFF" d="M146.198,197.142v41.569h41.553v-41.569H146.198z M179.723,222.026H154.24v-8.215h25.483V222.026z"/>
		<path fill="#FFFFFF" d="M53.002,197.142v41.569h41.562v-41.569H53.002z M73.769,227.771c-9.069,0-16.425-9.848-16.425-9.848
			s7.356-9.828,16.425-9.828c9.074,0,16.438,9.828,16.438,9.828S82.843,227.771,73.769,227.771z"/>
		<path fill="#FFFFFF" d="M78.307,217.923c0,2.515-2.026,4.545-4.538,4.545c-2.494,0-4.524-2.03-4.524-4.545
			c0-2.492,2.03-4.522,4.524-4.522C76.282,213.401,78.307,215.431,78.307,217.923z"/>
		<path fill="#FFFFFF" d="M99.586,197.142v41.569h41.56v-41.569H99.586z M123.003,224.042l-5.803,5.794l-5.801-5.794l-5.875-5.895
			l5.797-5.803l5.879,5.897l12.212-12.228l5.817,5.803L123.003,224.042z"/>
	</g>
	<polygon fill="#FFFFFF" points="185.873,188.111 185.295,190.047 184.615,192.474 183.958,190.119 183.381,188.111 
		181.977,188.111 181.847,188.111 178.489,188.111 178.489,189.325 179.53,189.325 179.53,193.948 180.808,193.948 180.808,189.325 
		181.847,189.325 181.847,193.948 182.939,193.948 182.939,190.617 183.46,192.395 183.928,193.948 185.281,193.948 
		185.714,192.366 186.066,190.863 186.066,193.948 187.302,193.948 187.302,188.111 	"/>
</g>
<g>
	<path fill="#FFFFFF" d="M193.32,50.063c0-24.89-20.99-45.162-46.822-45.162c-2.371,0-4.807,0.173-7.185,0.507
		c-20.077,2.858-33.505,17.293-41.031,28.363c-7.526-11.07-20.96-25.505-41.015-28.363c-2.4-0.334-4.814-0.507-7.201-0.507
		c-25.824,0-46.836,20.272-46.836,45.162c0,24.904,21.012,45.169,46.822,45.169c2.384,0,4.814-0.182,7.214-0.507
		c20.054-2.878,33.489-17.306,41.015-28.401c7.526,11.095,20.954,25.523,41.031,28.401c2.378,0.325,4.814,0.507,7.214,0.507
		C172.33,95.233,193.32,74.967,193.32,50.063z M55.006,78.868c-1.662,0.24-3.313,0.377-4.953,0.377
		c-16.995,0-30.815-13.1-30.815-29.182c0-16.075,13.82-29.168,30.828-29.168c1.633,0,3.286,0.13,4.94,0.361
		c18.915,2.705,30.479,21.346,34.402,28.807C85.471,57.545,73.901,76.179,55.006,78.868z M107.185,50.063
		c3.908-7.474,15.487-26.102,34.375-28.807c1.653-0.231,3.327-0.361,4.937-0.361c17.001,0,30.815,13.094,30.815,29.168
		c0,16.082-13.814,29.182-30.786,29.182c-1.631,0-3.313-0.137-4.966-0.377C122.666,76.179,111.093,57.538,107.185,50.063z"/>
	<rect x="37.161" y="45.662" fill="#FFFFFF" width="28.125" height="9.049"/>
	<polygon fill="#FFFFFF" points="149.622,54.711 159.142,54.711 159.142,45.662 149.622,45.662 149.622,36.122 140.553,36.122 
		140.553,45.662 131.017,45.662 131.017,54.711 140.553,54.711 140.553,64.252 149.622,64.252 	"/>
	<path fill="#FFFFFF" d="M16.542,108.667l-8.215,26.145h6.62l1.357-5.364h7.495l1.451,5.364h6.88l-8.331-26.145H16.542z
		 M17.542,124.43l2.364-9.572l2.589,9.572H17.542z"/>
	<path fill="#FFFFFF" d="M56.796,117.398c0-5.031-2.725-8.731-9.978-8.731H36.271v26.145h6.496v-8.293h3.239l3.966,8.293h7.613
		l-5.09-9.569C55.354,123.712,56.796,120.98,56.796,117.398z M46.175,121.341h-3.407v-7.396h3.284c3.015,0,3.872,1.175,3.872,3.481
		C49.923,120.341,48.445,121.341,46.175,121.341z"/>
	<path fill="#FFFFFF" d="M70.608,108.667h-8.562v26.145h8.607c11.1,0,12.984-7.133,12.984-13.311
		C83.636,113.293,80.368,108.667,70.608,108.667z M70.964,129.448h-2.452v-15.503h1.878c5.785,0,6.308,2.734,6.308,7.844
		C76.698,126.213,76.321,129.448,70.964,129.448z"/>
	<path fill="#FFFFFF" d="M102.806,124.632c0,4.004-1.11,5.316-4.045,5.316c-2.452,0-3.988-1.001-3.988-5.346v-15.936h-6.481v17.141
		c0,7.918,5.72,9.426,10.207,9.426c4.619,0,10.514-1.682,10.514-9.397v-17.17h-6.207V124.632z"/>
	<polygon fill="#FFFFFF" points="114.821,114.004 121.564,114.004 121.564,129.448 114.821,129.448 114.821,134.812 
		134.869,134.812 134.869,129.448 128.045,129.448 128.045,114.004 134.869,114.004 134.869,108.667 114.821,108.667 	"/>
	<polygon fill="#FFFFFF" points="155.742,124.372 147.244,108.667 140.203,108.667 140.203,134.812 146.316,134.812 146.28,118.08 
		155.228,134.812 161.76,134.812 161.76,108.667 155.742,108.667 	"/>
	<path fill="#FFFFFF" d="M177.03,108.319c-7.948,0-10.978,5.814-10.978,13.688c0,8.672,3.488,13.226,10.992,13.226
		c8.432,0,11.187-5.938,11.187-13.5C188.23,111.756,184.461,108.319,177.03,108.319z M177.043,129.948
		c-3.735,0-4.096-2.654-4.096-7.941c0-6.364,0.608-8.439,4.083-8.439c3.804,0,4.327,1.77,4.327,8.165
		C181.357,127.779,180.834,129.948,177.043,129.948z"/>
	<g>
		<path fill="#FFFFFF" d="M196.684,6.684c-0.348-0.812-0.835-1.523-1.413-2.102c-0.574-0.581-1.27-1.052-2.053-1.4
			c-0.799-0.348-1.647-0.516-2.559-0.516c-0.913,0-1.777,0.168-2.566,0.516c-0.79,0.348-1.481,0.819-2.059,1.4
			c-0.579,0.579-1.059,1.29-1.406,2.102c-0.341,0.805-0.523,1.676-0.523,2.631c0,0.906,0.182,1.79,0.523,2.602
			c0.348,0.843,0.828,1.539,1.406,2.133c0.579,0.595,1.27,1.059,2.059,1.4c0.789,0.354,1.653,0.529,2.566,0.529
			c0.913,0,1.761-0.175,2.559-0.529c0.783-0.341,1.478-0.805,2.053-1.4c0.579-0.594,1.065-1.29,1.413-2.133
			c0.341-0.812,0.514-1.696,0.514-2.602C197.198,8.36,197.026,7.49,196.684,6.684z M195.233,11.339
			c-0.251,0.623-0.621,1.16-1.086,1.624c-0.471,0.471-0.994,0.841-1.582,1.124c-0.581,0.267-1.211,0.413-1.907,0.413
			c-0.695,0-1.348-0.146-1.943-0.413c-0.624-0.283-1.131-0.653-1.588-1.124c-0.442-0.464-0.799-1.001-1.059-1.624
			c-0.253-0.624-0.393-1.292-0.393-2.023c0-0.724,0.139-1.406,0.393-2.037c0.26-0.653,0.617-1.189,1.059-1.66
			c0.458-0.471,0.965-0.835,1.588-1.095c0.594-0.256,1.247-0.393,1.943-0.393c0.695,0,1.326,0.137,1.907,0.393
			c0.588,0.26,1.11,0.623,1.582,1.095c0.464,0.471,0.835,1.007,1.086,1.66c0.269,0.63,0.406,1.312,0.406,2.037
			C195.639,10.047,195.502,10.715,195.233,11.339z"/>
		<path fill="#FFFFFF" d="M192.079,9.962c0.37-0.175,0.653-0.449,0.85-0.776c0.209-0.325,0.312-0.696,0.312-1.095
			c0-0.624-0.226-1.166-0.662-1.624c-0.449-0.464-1.196-0.682-2.254-0.682c-0.406,0-0.761,0-1.072,0.029
			c-0.319,0.016-0.617,0.042-0.913,0.072v6.555h1.653v-2.16h0.666l1.153,2.16h1.864L192.079,9.962z M190.435,9.078
			c-0.224,0-0.384-0.016-0.493-0.052V7.263c0.11-0.029,0.289-0.065,0.536-0.065c0.704,0,1.059,0.328,1.059,0.951
			S191.175,9.078,190.435,9.078z"/>
	</g>
</g>
</svg>
