<?xml version="1.0" encoding="utf-8"?>
<!-- Generator: Adobe Illustrator 19.2.1, SVG Export Plug-In . SVG Version: 6.00 Build 0)  -->
<svg version="1.1" id="Layer_1" xmlns="http://www.w3.org/2000/svg" xmlns:xlink="http://www.w3.org/1999/xlink" x="0px" y="0px"
	 width="239.5px" height="59.25px" viewBox="0 0 239.5 59.25" style="enable-background:new 0 0 239.5 59.25;" xml:space="preserve"
	>
<style type="text/css">
	.st0{fill:#FFFFFF;}
	.st1{fill:#7FCACC;}
</style>
<path class="st0" d="M5.098,8.782v42.603h90.144V8.782H5.098z M52.732,8.965l1.433,2.74l-7.377,3.458l-0.971-1.729L52.732,8.965z
	 M23.435,33.797v10.667h-3.416V33.881L10.701,17.06h3.626l7.505,13.871l6.872-13.871h3.374L23.435,33.797z M58.802,34.218
	c0,6.324-2.402,10.667-10.075,10.667c-7.547,0-9.95-3.71-9.95-10.329V17.06h3.372v17.117c0,5.944,1.899,7.843,6.704,7.843
	c5.017,0,6.62-2.362,6.62-8.139V17.06h3.33V34.218z M86.371,44.464h-3.5L69.296,22.076v22.388H66.05V17.06h3.752l13.365,21.966
	V17.06h3.204V44.464z"/>
<g>
	<path class="st1" d="M106.518,17.06h9.614c7.402,0,10.21,3.829,10.21,9.231c0,5.786-3.701,9.614-10.38,9.614h-3.914v8.806h-5.53
		V17.06z M120.514,26.504c0-2.893-1.021-4.892-4.892-4.892h-3.573v9.742h3.743C118.77,31.353,120.514,30.035,120.514,26.504z"/>
	<path class="st1" d="M128.513,44.712l9.699-27.652h6.083l9.785,27.652h-5.828l-2.127-6.339h-9.997l-1.999,6.339H128.513z
		 M143.444,30.375l-2.425-7.955l-2.382,8.126l-1.106,3.488h7.147L143.444,30.375z"/>
	<path class="st1" d="M164.588,44.712h-5.233V17.06h5.913l8.041,11.656l5.105,7.743l-0.043-7.572V17.06h5.147v27.652h-5.573
		l-8.125-11.869l-5.275-8.04l0.043,8.21V44.712z"/>
	<path class="st1" d="M210.064,17.06v4.552h-12.422v6.722h11.146v4.509h-11.146v7.232h12.379v4.637h-17.91V17.06H210.064z"/>
	<path class="st1" d="M222.954,17.06v23.015h11.359v4.637h-16.89V17.06H222.954z"/>
</g>
</svg>
