<?xml version="1.0" encoding="utf-8"?>
<!-- Generator: Adobe Illustrator 17.1.0, SVG Export Plug-In . SVG Version: 6.00 Build 0)  -->
<!DOCTYPE svg PUBLIC "-//W3C//DTD SVG 1.1//EN" "http://www.w3.org/Graphics/SVG/1.1/DTD/svg11.dtd">
<svg version="1.1" id="Layer_1" xmlns="http://www.w3.org/2000/svg" xmlns:xlink="http://www.w3.org/1999/xlink" x="0px" y="0px"
	 width="340px" height="80px" viewBox="0 0 340 80" enable-background="new 0 0 340 80" xml:space="preserve">
<path fill="#FFFFFF" d="M243.802,4.32v43.115h91.227V4.32H243.802z M292.008,4.505l1.45,2.773l-7.466,3.499l-0.983-1.75
	L292.008,4.505z M262.358,29.636v10.795h-3.457v-10.71l-9.43-17.023h3.669l7.595,14.038l6.954-14.038h3.414L262.358,29.636z
	 M298.151,30.062c0,6.4-2.431,10.795-10.196,10.795c-7.638,0-10.069-3.754-10.069-10.453V12.697h3.412V30.02
	c0,6.016,1.922,7.937,6.784,7.937c5.077,0,6.699-2.391,6.699-8.236V12.697h3.37V30.062z M326.05,40.431h-3.542L308.77,17.774v22.656
	h-3.285V12.697h3.797l13.526,22.23v-22.23h3.242V40.431z"/>
<g>
	<g>
		<path fill="#FFFFFF" d="M127,4.667v22h23v-22H127z M146,17.667h-4v4h-5v-4h-4v-3h4v-6h5v6h4V17.667z"/>
		<path fill="#FFFFFF" d="M202,4.667v22h22v-22H202z M220,17.667h-14v-3h14V17.667z"/>
		<path fill="#FFFFFF" d="M151,4.667v22h24v-22H151z M163.915,20.407c-4.765,0-8.63-5.168-8.63-5.168s3.865-5.167,8.63-5.167
			c4.765,0,8.627,5.167,8.627,5.167S168.68,20.407,163.915,20.407z"/>
		<circle fill="#FFFFFF" cx="163.914" cy="15.239" r="2.383"/>
		<path fill="#FFFFFF" d="M177,4.667v22h21v-22H177z M189.782,18.447l-3.05,3.05l-3.05-3.05l-3.089-3.09l3.05-3.05l3.089,3.089
			l6.416-6.419l3.05,3.05L189.782,18.447z"/>
	</g>
	<g>
		<path fill="#FFFFFF" d="M139.245,40.595v5.836c-1.643,0.887-3.178,1.34-4.821,1.34c-4.345,0-6.312-2.659-6.312-7.285
			c0-4.907,2.983-7.177,7.025-7.177c1.47,0,2.551,0.238,4.086,0.951l-1.189,3.113c-1.167-0.929-1.924-1.232-3.048-1.232
			c-2.032,0-3.178,1.146-3.178,4.302c0,3.329,1.232,4.518,3.329,4.518c0.238,0,0.454,0,0.692-0.043v-4.323H139.245z"/>
		<path fill="#FFFFFF" d="M151.976,43.924l0.865,2.637c-1.383,0.757-2.637,1.21-4.734,1.21c-2.788,0-5.599-1.492-5.599-5.534
			c0-3.35,2.486-5.404,5.231-5.404c2.94,0,5.145,1.448,5.145,5.642c0,0.238,0,0.476-0.022,0.735h-6.809
			c0.367,1.578,1.664,1.902,2.875,1.902C149.858,45.113,151.09,44.638,151.976,43.924z M149.426,41.114
			c0.087-1.405-0.713-1.902-1.578-1.902c-1.167,0-1.708,0.497-1.859,1.902H149.426z"/>
		<path fill="#FFFFFF" d="M160.081,47.556h-3.437V37.158h3.134l0.065,1.535c1.059-1.362,2.421-1.859,3.761-1.859
			c1.859,0,3.48,1.038,3.48,3.697v7.025h-3.437v-5.923c0-1.427-0.648-1.686-1.405-1.686c-0.757,0-1.621,0.476-2.162,1.103V47.556z"
			/>
		<path fill="#FFFFFF" d="M177.676,37.158h3.437v10.398h-3.026l-0.173-1.643c-1.059,1.362-2.356,1.859-3.696,1.859
			c-1.859,0-3.48-0.778-3.48-3.697v-6.917h3.437v6.031c0,1.47,0.562,1.729,1.211,1.729c0.757,0,1.686-0.648,2.291-1.362V37.158z"/>
		<path fill="#FFFFFF" d="M185.024,44.875h3.178v-5.037h-3.178v-2.68h6.615v7.717h3.286v2.68h-9.9V44.875z M189.953,31.862
			c1.059,0,1.924,0.865,1.924,1.924c0,1.059-0.865,1.902-1.924,1.902c-1.059,0-1.902-0.843-1.902-1.902
			C188.051,32.727,188.894,31.862,189.953,31.862z"/>
		<path fill="#FFFFFF" d="M202.23,47.556h-3.437V37.158h3.134l0.065,1.535c1.059-1.362,2.421-1.859,3.761-1.859
			c1.859,0,3.481,1.038,3.481,3.697v7.025h-3.437v-5.923c0-1.427-0.648-1.686-1.405-1.686c-0.757,0-1.622,0.476-2.162,1.103V47.556z
			"/>
		<path fill="#FFFFFF" d="M218.095,36.834c3.653,0,5.642,2.248,5.642,5.447c0,3.048-2.075,5.491-5.62,5.491
			c-3.524,0-5.707-2.075-5.707-5.491C212.41,39.234,214.658,36.834,218.095,36.834z M218.009,45.113
			c1.729,0,2.118-0.886,2.118-2.853c0-1.513-0.389-2.767-2.118-2.767c-1.492,0-1.988,1.038-1.988,2.767
			C216.02,44.184,216.669,45.113,218.009,45.113z"/>
	</g>
	<g>
		<g>
			<path fill="#FFFFFF" d="M226.162,5.035h-0.468V4.32h1.685v0.715h-0.468v2.683h-0.75V5.035z M227.504,4.32h0.9l0.335,1.174
				l0.388,1.368l0.397-1.412l0.335-1.13h0.839v3.398h-0.715V5.927L229.763,6.8l-0.247,0.918h-0.794l-0.264-0.9l-0.309-1.033v1.933
				h-0.644V4.32z"/>
		</g>
	</g>
</g>
<line fill="#108A9C" stroke="#FFFFFF" stroke-miterlimit="10" x1="115.425" y1="4.32" x2="115.425" y2="75.273"/>
<g>
	<path fill="#FFFFFF" d="M102.939,27.842c0-12.968-10.941-23.522-24.391-23.522l0,0c-1.24,0-2.5,0.084-3.753,0.265l0,0
		c-10.448,1.49-17.442,9.009-21.358,14.774l0,0C49.512,13.594,42.519,6.075,32.069,4.585l0,0C30.822,4.404,29.56,4.32,28.32,4.32
		l0,0c-13.455,0-24.393,10.554-24.393,23.522l0,0c0,12.973,10.939,23.522,24.383,23.522l0,0c1.248,0,2.512-0.082,3.759-0.258l0,0
		c10.45-1.5,17.443-9.02,21.368-14.791l0,0c3.915,5.771,10.91,13.29,21.358,14.791l0,0c1.253,0.176,2.513,0.258,3.763,0.258l0,0
		C92,51.364,102.939,40.815,102.939,27.842L102.939,27.842z M30.889,42.845c-0.857,0.121-1.725,0.186-2.579,0.186l0,0
		c-8.846,0-16.042-6.817-16.042-15.189l0,0c0-8.371,7.197-15.193,16.053-15.193l0,0c0.846,0,1.712,0.07,2.571,0.187l0,0
		c9.843,1.405,15.872,11.116,17.915,15.001l0,0C46.762,31.733,40.735,41.44,30.889,42.845L30.889,42.845z M58.065,27.842
		c2.043-3.89,8.064-13.6,17.911-15.005l0,0c0.854-0.118,1.725-0.187,2.571-0.187l0,0c8.85,0,16.05,6.822,16.05,15.193l0,0
		c0,8.372-7.198,15.189-16.04,15.189l0,0c-0.849,0-1.72-0.065-2.581-0.186l0,0C66.129,41.44,60.103,31.728,58.065,27.842
		L58.065,27.842z"/>
	<polygon fill="#FFFFFF" points="21.598,30.266 36.242,30.266 36.242,30.266 36.242,25.544 36.242,25.544 21.598,25.544 
		21.598,25.544 21.598,30.266 	"/>
	<polygon fill="#FFFFFF" points="80.172,30.266 85.124,30.266 85.124,30.266 85.124,25.544 85.124,25.544 80.172,25.544 
		80.172,25.544 80.172,20.578 80.172,20.578 75.441,20.578 75.441,20.578 75.441,25.544 75.441,25.544 70.482,25.544 70.482,25.544 
		70.482,30.266 70.482,30.266 75.441,30.266 75.441,30.266 75.441,35.233 75.441,35.233 80.172,35.233 80.172,35.233 80.172,30.266 
			"/>
	<path fill="#FFFFFF" d="M10.855,58.358L6.58,71.983l0,0h3.45l0,0l0.696-2.792l0,0h3.918l0,0l0.757,2.792l0,0h3.581l0,0
		l-4.337-13.625l0,0H10.855L10.855,58.358z M11.375,66.577l1.235-4.99l0,0l1.346,4.99l0,0H11.375L11.375,66.577z"/>
	<path fill="#FFFFFF" d="M31.825,62.909c0-2.619-1.424-4.551-5.194-4.551l0,0h-5.489l0,0v13.625l0,0h3.371l0,0v-4.318l0,0h1.7l0,0
		l2.046,4.318l0,0h3.983l0,0l-2.659-4.988l0,0C31.07,66.197,31.825,64.777,31.825,62.909L31.825,62.909z M26.297,64.96h-1.783l0,0
		v-3.846l0,0h1.718l0,0c1.572,0,2.005,0.604,2.005,1.813l0,0C28.236,64.441,27.467,64.96,26.297,64.96L26.297,64.96z"/>
	<path fill="#FFFFFF" d="M39.014,58.358h-4.46l0,0v13.625l0,0h4.481l0,0c5.781,0,6.764-3.714,6.764-6.938l0,0
		C45.798,60.768,44.105,58.358,39.014,58.358L39.014,58.358z M39.202,69.191h-1.277l0,0v-8.077l0,0h0.984l0,0
		c3.015,0,3.287,1.418,3.287,4.081l0,0C42.196,67.497,41.989,69.191,39.202,69.191L39.202,69.191z"/>
	<path fill="#FFFFFF" d="M55.78,66.678c0,2.077-0.568,2.764-2.1,2.764l0,0c-1.276,0-2.076-0.522-2.076-2.782l0,0v-8.301l0,0h-3.37
		l0,0v8.932l0,0c0,4.125,2.976,4.902,5.303,4.902l0,0c2.411,0,5.487-0.86,5.487-4.884l0,0v-8.95l0,0H55.78l0,0V66.678L55.78,66.678z
		"/>
	<polygon fill="#FFFFFF" points="62.038,61.145 65.561,61.145 65.561,61.145 65.561,69.191 65.561,69.191 62.038,69.191 
		62.038,69.191 62.038,71.983 62.038,71.983 72.478,71.983 72.478,71.983 72.478,69.191 72.478,69.191 68.934,69.191 68.934,69.191 
		68.934,61.145 68.934,61.145 72.478,61.145 72.478,61.145 72.478,58.358 72.478,58.358 62.038,58.358 62.038,58.358 62.038,61.145 
			"/>
	<polygon fill="#FFFFFF" points="83.352,66.536 78.935,58.358 78.935,58.358 75.262,58.358 75.262,58.358 75.262,71.983 
		75.262,71.983 78.452,71.983 78.452,71.983 78.429,63.263 78.429,63.263 83.083,71.983 83.083,71.983 86.496,71.983 86.496,71.983 
		86.496,58.358 86.496,58.358 83.352,58.358 83.352,58.358 83.352,66.536 	"/>
	<path fill="#FFFFFF" d="M94.445,58.18c-4.132,0-5.703,3.032-5.703,7.139l0,0c0,4.507,1.803,6.873,5.718,6.873l0,0
		c4.382,0,5.824-3.078,5.824-7.02l0,0C100.284,59.973,98.32,58.18,94.445,58.18L94.445,58.18z M94.46,69.442
		c-1.947,0-2.139-1.377-2.139-4.122l0,0c0-3.327,0.319-4.401,2.123-4.401l0,0c1.985,0,2.259,0.927,2.259,4.254l0,0
		C96.704,68.315,96.43,69.442,94.46,69.442L94.46,69.442z"/>
</g>
<g>
	<path fill="#FFFFFF" d="M103.699,7.593c0,1.35-1.059,2.41-2.439,2.41c-1.364,0-2.453-1.06-2.453-2.41
		c0-1.321,1.089-2.381,2.453-2.381C102.64,5.213,103.699,6.272,103.699,7.593z M99.416,7.593c0,1.06,0.784,1.902,1.858,1.902
		c1.045,0,1.814-0.842,1.814-1.887c0-1.06-0.769-1.916-1.829-1.916C100.201,5.692,99.416,6.548,99.416,7.593z M100.883,8.842h-0.552
		V6.461c0.218-0.043,0.523-0.073,0.915-0.073c0.45,0,0.653,0.073,0.827,0.174c0.131,0.101,0.232,0.29,0.232,0.523
		c0,0.261-0.203,0.465-0.493,0.552v0.029c0.232,0.087,0.363,0.261,0.436,0.581c0.073,0.363,0.116,0.508,0.174,0.595h-0.595
		c-0.073-0.087-0.116-0.305-0.189-0.581c-0.043-0.261-0.189-0.377-0.493-0.377h-0.261V8.842z M100.897,7.492h0.261
		c0.305,0,0.552-0.102,0.552-0.349c0-0.218-0.16-0.363-0.508-0.363c-0.145,0-0.247,0.014-0.305,0.029V7.492z"/>
</g>
</svg>
